<svg width="21" height="21" viewBox="0 0 21 21" fill="none" xmlns="http://www.w3.org/2000/svg">
<path d="M20.96 19.04L14.195 12.275C15.0597 11.0183 15.5154 9.52535 15.5 7.99999C15.5007 6.32379 14.9398 4.69568 13.907 3.37551C12.8741 2.05534 11.4288 1.11922 9.80165 0.716563C8.17453 0.313907 6.45943 0.467926 4.93008 1.15404C3.40073 1.84015 2.1453 3.0188 1.36417 4.50186C0.583042 5.98493 0.321239 7.68692 0.620548 9.33619C0.919858 10.9854 1.76303 12.4869 3.01548 13.6009C4.26793 14.7149 5.85746 15.3773 7.53037 15.4822C9.20329 15.5872 10.8631 15.1287 12.245 14.18L19.01 20.945L20.96 19.04ZM2.63001 7.99999C2.63299 6.93134 2.95299 5.88761 3.54949 5.00092C4.14599 4.11424 4.99216 3.42448 5.98089 3.01896C6.96961 2.61345 8.05643 2.51041 9.10374 2.72291C10.1511 2.9354 11.1118 3.45387 11.8643 4.21267C12.6168 4.97146 13.1272 5.93647 13.3309 6.98552C13.5347 8.03458 13.4226 9.12049 13.0088 10.1058C12.5951 11.0911 11.8983 11.9315 11.0066 12.5206C10.115 13.1097 9.06865 13.4209 8.00001 13.415C6.57044 13.4071 5.20236 12.8326 4.19571 11.8175C3.18907 10.8024 2.62602 9.42958 2.63001 7.99999Z" fill="#737577"/>
</svg>
